<svg width="20" height="20" viewBox="0 0 20 20" fill="none" xmlns="http://www.w3.org/2000/svg">
<path d="M16.6667 5.00001H14.85C14.9417 4.74167 15 4.45834 15 4.16667C15 2.78334 13.8834 1.66667 12.5 1.66667C11.625 1.66667 10.8667 2.11667 10.4167 2.79167L10 3.35001L9.58335 2.78334C9.13335 2.11667 8.37502 1.66667 7.50002 1.66667C6.11669 1.66667 5.00002 2.78334 5.00002 4.16667C5.00002 4.45834 5.05835 4.74167 5.15002 5.00001H3.33335C2.40835 5.00001 1.67502 5.74167 1.67502 6.66667L1.66669 15.8333C1.66669 16.7583 2.40835 17.5 3.33335 17.5H16.6667C17.5917 17.5 18.3334 16.7583 18.3334 15.8333V6.66667C18.3334 5.74167 17.5917 5.00001 16.6667 5.00001ZM12.5 3.33334C12.9584 3.33334 13.3334 3.70834 13.3334 4.16667C13.3334 4.62501 12.9584 5.00001 12.5 5.00001C12.0417 5.00001 11.6667 4.62501 11.6667 4.16667C11.6667 3.70834 12.0417 3.33334 12.5 3.33334ZM7.50002 3.33334C7.95835 3.33334 8.33335 3.70834 8.33335 4.16667C8.33335 4.62501 7.95835 5.00001 7.50002 5.00001C7.04169 5.00001 6.66669 4.62501 6.66669 4.16667C6.66669 3.70834 7.04169 3.33334 7.50002 3.33334ZM16.6667 15.8333H3.33335V14.1667H16.6667V15.8333ZM16.6667 11.6667H3.33335V6.66667H7.56669L5.83335 9.025L7.18335 10L9.16669 7.3L10 6.16667L10.8334 7.3L12.8167 10L14.1667 9.025L12.4334 6.66667H16.6667V11.6667Z" fill="white"/>
</svg>
